%TF.GenerationSoftware,KiCad,Pcbnew,(5.1.9)-1*%
%TF.CreationDate,2021-10-24T01:50:07-04:00*%
%TF.ProjectId,nRF24_Breakout,6e524632-345f-4427-9265-616b6f75742e,1.0*%
%TF.SameCoordinates,Original*%
%TF.FileFunction,Copper,L1,Top*%
%TF.FilePolarity,Positive*%
%FSLAX46Y46*%
G04 Gerber Fmt 4.6, Leading zero omitted, Abs format (unit mm)*
G04 Created by KiCad (PCBNEW (5.1.9)-1) date 2021-10-24 01:50:07*
%MOMM*%
%LPD*%
G01*
G04 APERTURE LIST*
%TA.AperFunction,ComponentPad*%
%ADD10O,1.700000X1.700000*%
%TD*%
%TA.AperFunction,ComponentPad*%
%ADD11R,1.700000X1.700000*%
%TD*%
%TA.AperFunction,ComponentPad*%
%ADD12C,1.524000*%
%TD*%
%TA.AperFunction,ComponentPad*%
%ADD13R,2.000000X2.000000*%
%TD*%
%TA.AperFunction,ComponentPad*%
%ADD14C,2.000000*%
%TD*%
%TA.AperFunction,Conductor*%
%ADD15C,0.250000*%
%TD*%
%TA.AperFunction,Conductor*%
%ADD16C,0.254000*%
%TD*%
%TA.AperFunction,Conductor*%
%ADD17C,0.100000*%
%TD*%
G04 APERTURE END LIST*
D10*
%TO.P,J1,8*%
%TO.N,Net-(C1-Pad1)*%
X151892000Y-107284000D03*
%TO.P,J1,7*%
%TO.N,Net-(J1-Pad7)*%
X151892000Y-104744000D03*
%TO.P,J1,6*%
%TO.N,Net-(J1-Pad6)*%
X151892000Y-102204000D03*
%TO.P,J1,5*%
%TO.N,Net-(J1-Pad5)*%
X151892000Y-99664000D03*
%TO.P,J1,4*%
%TO.N,Net-(J1-Pad4)*%
X151892000Y-97124000D03*
%TO.P,J1,3*%
%TO.N,Net-(J1-Pad3)*%
X151892000Y-94584000D03*
%TO.P,J1,2*%
%TO.N,Net-(J1-Pad2)*%
X151892000Y-92044000D03*
D11*
%TO.P,J1,1*%
%TO.N,Net-(C1-Pad2)*%
X151892000Y-89504000D03*
%TD*%
D12*
%TO.P,U1,1*%
%TO.N,Net-(J1-Pad2)*%
X146618001Y-99568000D03*
%TO.P,U1,2*%
%TO.N,Net-(J1-Pad3)*%
X146618001Y-97028000D03*
%TO.P,U1,3*%
%TO.N,Net-(J1-Pad4)*%
X146618001Y-94488000D03*
%TO.P,U1,4*%
%TO.N,Net-(J1-Pad5)*%
X144078001Y-94488000D03*
%TO.P,U1,5*%
%TO.N,Net-(J1-Pad6)*%
X144078001Y-97028000D03*
%TO.P,U1,6*%
%TO.N,Net-(J1-Pad7)*%
X144078001Y-99568000D03*
%TO.P,U1,7*%
%TO.N,Net-(C1-Pad1)*%
X144078001Y-102108000D03*
%TO.P,U1,0*%
%TO.N,Net-(C1-Pad2)*%
X146618001Y-102108000D03*
%TD*%
D13*
%TO.P,C1,1*%
%TO.N,Net-(C1-Pad1)*%
X138430000Y-109982000D03*
D14*
%TO.P,C1,2*%
%TO.N,Net-(C1-Pad2)*%
X143430000Y-109982000D03*
%TD*%
D15*
%TO.N,Net-(C1-Pad2)*%
X152456001Y-103568999D02*
X153067001Y-104179999D01*
X148079000Y-103568999D02*
X152456001Y-103568999D01*
X153067001Y-104179999D02*
X153067001Y-108298999D01*
X146618001Y-102108000D02*
X148079000Y-103568999D01*
X152906999Y-108459001D02*
X148591001Y-108459001D01*
X153067001Y-108298999D02*
X152906999Y-108459001D01*
%TO.N,Net-(J1-Pad2)*%
X147453239Y-92044000D02*
X151892000Y-92044000D01*
X145531000Y-93966239D02*
X147453239Y-92044000D01*
X145531000Y-98480999D02*
X145531000Y-93966239D01*
X146618001Y-99568000D02*
X145531000Y-98480999D01*
%TO.N,Net-(J1-Pad3)*%
X147889002Y-98299001D02*
X153160999Y-98299001D01*
X146618001Y-97028000D02*
X147889002Y-98299001D01*
X153160999Y-98299001D02*
X153670000Y-97790000D01*
X153670000Y-96362000D02*
X151892000Y-94584000D01*
X153670000Y-97790000D02*
X153670000Y-96362000D01*
%TO.N,Net-(J1-Pad4)*%
X149448000Y-97124000D02*
X151892000Y-97124000D01*
X148844000Y-96520000D02*
X149448000Y-97124000D01*
X148844000Y-95250000D02*
X148844000Y-96520000D01*
X148082000Y-94488000D02*
X148844000Y-95250000D01*
X146618001Y-94488000D02*
X148082000Y-94488000D01*
%TO.N,Net-(J1-Pad5)*%
X147697002Y-90868999D02*
X152590999Y-90868999D01*
X144078001Y-94488000D02*
X147697002Y-90868999D01*
X153094081Y-99664000D02*
X151892000Y-99664000D01*
X154120009Y-98638072D02*
X153094081Y-99664000D01*
X154120010Y-92398010D02*
X154120009Y-98638072D01*
X152590999Y-90868999D02*
X154120010Y-92398010D01*
%TO.N,Net-(J1-Pad6)*%
X150708999Y-101020999D02*
X151892000Y-102204000D01*
X146462238Y-101020999D02*
X150708999Y-101020999D01*
X145531000Y-100089761D02*
X146462238Y-101020999D01*
X145531000Y-99412237D02*
X145531000Y-100089761D01*
X144078001Y-97959238D02*
X145531000Y-99412237D01*
X144078001Y-97028000D02*
X144078001Y-97959238D01*
%TO.N,Net-(J1-Pad7)*%
X147645239Y-104744000D02*
X151892000Y-104744000D01*
X145165002Y-102263763D02*
X147645239Y-104744000D01*
X145165002Y-100655001D02*
X145165002Y-102263763D01*
X144078001Y-99568000D02*
X145165002Y-100655001D01*
%TO.N,Net-(C1-Pad1)*%
X149254001Y-107284000D02*
X151892000Y-107284000D01*
X144078001Y-102108000D02*
X149254001Y-107284000D01*
X138430000Y-109982000D02*
X138430000Y-104394000D01*
X138430000Y-104394000D02*
X140462000Y-102362000D01*
X143824001Y-102362000D02*
X144078001Y-102108000D01*
X140462000Y-102362000D02*
X143824001Y-102362000D01*
%TO.N,Net-(C1-Pad2)*%
X143430000Y-109982000D02*
X146224000Y-107188000D01*
X147320000Y-107188000D02*
X148591001Y-108459001D01*
X146224000Y-107188000D02*
X147320000Y-107188000D01*
X154570019Y-102676981D02*
X153067001Y-104179999D01*
X154570019Y-92182019D02*
X154570019Y-102676981D01*
X151892000Y-89504000D02*
X154570019Y-92182019D01*
%TD*%
D16*
%TO.N,Net-(C1-Pad1)*%
X150797820Y-88064498D02*
X150687506Y-88123463D01*
X150590815Y-88202815D01*
X150511463Y-88299506D01*
X150452498Y-88409820D01*
X150416188Y-88529518D01*
X150403928Y-88654000D01*
X150403928Y-90108999D01*
X147734324Y-90108999D01*
X147697001Y-90105323D01*
X147659678Y-90108999D01*
X147659669Y-90108999D01*
X147548016Y-90119996D01*
X147404755Y-90163453D01*
X147272726Y-90234025D01*
X147157001Y-90328998D01*
X147133203Y-90357996D01*
X144369572Y-93121628D01*
X144215593Y-93091000D01*
X143940409Y-93091000D01*
X143670511Y-93144686D01*
X143416274Y-93249995D01*
X143187466Y-93402880D01*
X142992881Y-93597465D01*
X142839996Y-93826273D01*
X142734687Y-94080510D01*
X142681001Y-94350408D01*
X142681001Y-94625592D01*
X142734687Y-94895490D01*
X142839996Y-95149727D01*
X142992881Y-95378535D01*
X143187466Y-95573120D01*
X143416274Y-95726005D01*
X143493516Y-95758000D01*
X143416274Y-95789995D01*
X143187466Y-95942880D01*
X142992881Y-96137465D01*
X142839996Y-96366273D01*
X142734687Y-96620510D01*
X142681001Y-96890408D01*
X142681001Y-97165592D01*
X142734687Y-97435490D01*
X142839996Y-97689727D01*
X142992881Y-97918535D01*
X143187466Y-98113120D01*
X143366840Y-98232974D01*
X143372455Y-98251484D01*
X143414908Y-98330908D01*
X143187466Y-98482880D01*
X142992881Y-98677465D01*
X142839996Y-98906273D01*
X142734687Y-99160510D01*
X142681001Y-99430408D01*
X142681001Y-99705592D01*
X142734687Y-99975490D01*
X142839996Y-100229727D01*
X142992881Y-100458535D01*
X143187466Y-100653120D01*
X143416274Y-100806005D01*
X143487944Y-100835692D01*
X143474978Y-100840364D01*
X143359021Y-100902344D01*
X143292041Y-101142435D01*
X144078001Y-101928395D01*
X144092144Y-101914253D01*
X144271749Y-102093858D01*
X144257606Y-102108000D01*
X144271749Y-102122143D01*
X144092144Y-102301748D01*
X144078001Y-102287605D01*
X143292041Y-103073565D01*
X143359021Y-103313656D01*
X143608049Y-103430756D01*
X143875136Y-103497023D01*
X144150018Y-103509910D01*
X144422134Y-103468922D01*
X144681024Y-103375636D01*
X144796981Y-103313656D01*
X144863960Y-103073567D01*
X144980370Y-103189977D01*
X144998392Y-103171955D01*
X147081440Y-105255003D01*
X147105238Y-105284001D01*
X147220963Y-105378974D01*
X147352992Y-105449546D01*
X147496253Y-105493003D01*
X147607906Y-105504000D01*
X147607916Y-105504000D01*
X147645239Y-105507676D01*
X147682562Y-105504000D01*
X150613822Y-105504000D01*
X150738525Y-105690632D01*
X150945368Y-105897475D01*
X151127534Y-106019195D01*
X151010645Y-106088822D01*
X150794412Y-106283731D01*
X150620359Y-106517080D01*
X150495175Y-106779901D01*
X150450524Y-106927110D01*
X150571845Y-107157000D01*
X151765000Y-107157000D01*
X151765000Y-107137000D01*
X152019000Y-107137000D01*
X152019000Y-107157000D01*
X152039000Y-107157000D01*
X152039000Y-107411000D01*
X152019000Y-107411000D01*
X152019000Y-107431000D01*
X151765000Y-107431000D01*
X151765000Y-107411000D01*
X150571845Y-107411000D01*
X150450524Y-107640890D01*
X150468150Y-107699001D01*
X148905803Y-107699001D01*
X147883804Y-106677003D01*
X147860001Y-106647999D01*
X147744276Y-106553026D01*
X147612247Y-106482454D01*
X147468986Y-106438997D01*
X147357333Y-106428000D01*
X147357322Y-106428000D01*
X147320000Y-106424324D01*
X147282678Y-106428000D01*
X146261325Y-106428000D01*
X146224000Y-106424324D01*
X146186675Y-106428000D01*
X146186667Y-106428000D01*
X146075014Y-106438997D01*
X145931753Y-106482454D01*
X145799724Y-106553026D01*
X145683999Y-106647999D01*
X145660201Y-106676997D01*
X143921376Y-108415823D01*
X143906912Y-108409832D01*
X143591033Y-108347000D01*
X143268967Y-108347000D01*
X142953088Y-108409832D01*
X142655537Y-108533082D01*
X142387748Y-108712013D01*
X142160013Y-108939748D01*
X141981082Y-109207537D01*
X141857832Y-109505088D01*
X141795000Y-109820967D01*
X141795000Y-110143033D01*
X141857832Y-110458912D01*
X141981082Y-110756463D01*
X142160013Y-111024252D01*
X142387748Y-111251987D01*
X142655537Y-111430918D01*
X142953088Y-111554168D01*
X143268967Y-111617000D01*
X143591033Y-111617000D01*
X143906912Y-111554168D01*
X144204463Y-111430918D01*
X144472252Y-111251987D01*
X144699987Y-111024252D01*
X144878918Y-110756463D01*
X145002168Y-110458912D01*
X145065000Y-110143033D01*
X145065000Y-109820967D01*
X145002168Y-109505088D01*
X144996177Y-109490624D01*
X146538802Y-107948000D01*
X147005199Y-107948000D01*
X148027202Y-108970004D01*
X148051000Y-108999002D01*
X148135074Y-109068000D01*
X147287581Y-109068000D01*
X147190617Y-109077550D01*
X147066207Y-109115290D01*
X146951550Y-109176575D01*
X146851052Y-109259052D01*
X146778875Y-109347000D01*
X146558000Y-109347000D01*
X146533224Y-109349440D01*
X146509399Y-109356667D01*
X146487443Y-109368403D01*
X146468197Y-109384197D01*
X146452403Y-109403443D01*
X146440667Y-109425399D01*
X146433440Y-109449224D01*
X146431000Y-109474000D01*
X146431000Y-111271457D01*
X146379570Y-111485678D01*
X146318547Y-111633000D01*
X135621453Y-111633000D01*
X135560430Y-111485678D01*
X135509000Y-111271457D01*
X135509000Y-110982000D01*
X136791928Y-110982000D01*
X136804188Y-111106482D01*
X136840498Y-111226180D01*
X136899463Y-111336494D01*
X136978815Y-111433185D01*
X137075506Y-111512537D01*
X137185820Y-111571502D01*
X137305518Y-111607812D01*
X137430000Y-111620072D01*
X138144250Y-111617000D01*
X138303000Y-111458250D01*
X138303000Y-110109000D01*
X138557000Y-110109000D01*
X138557000Y-111458250D01*
X138715750Y-111617000D01*
X139430000Y-111620072D01*
X139554482Y-111607812D01*
X139674180Y-111571502D01*
X139784494Y-111512537D01*
X139881185Y-111433185D01*
X139960537Y-111336494D01*
X140019502Y-111226180D01*
X140055812Y-111106482D01*
X140068072Y-110982000D01*
X140065000Y-110267750D01*
X139906250Y-110109000D01*
X138557000Y-110109000D01*
X138303000Y-110109000D01*
X136953750Y-110109000D01*
X136795000Y-110267750D01*
X136791928Y-110982000D01*
X135509000Y-110982000D01*
X135509000Y-109474000D01*
X135506560Y-109449224D01*
X135499333Y-109425399D01*
X135487597Y-109403443D01*
X135471803Y-109384197D01*
X135452557Y-109368403D01*
X135430601Y-109356667D01*
X135406776Y-109349440D01*
X135382000Y-109347000D01*
X135161125Y-109347000D01*
X135088948Y-109259052D01*
X134988450Y-109176575D01*
X134873793Y-109115290D01*
X134749383Y-109077550D01*
X134652419Y-109068000D01*
X130200000Y-109068000D01*
X130200000Y-108982000D01*
X136791928Y-108982000D01*
X136795000Y-109696250D01*
X136953750Y-109855000D01*
X138303000Y-109855000D01*
X138303000Y-108505750D01*
X138557000Y-108505750D01*
X138557000Y-109855000D01*
X139906250Y-109855000D01*
X140065000Y-109696250D01*
X140068072Y-108982000D01*
X140055812Y-108857518D01*
X140019502Y-108737820D01*
X139960537Y-108627506D01*
X139881185Y-108530815D01*
X139784494Y-108451463D01*
X139674180Y-108392498D01*
X139554482Y-108356188D01*
X139430000Y-108343928D01*
X138715750Y-108347000D01*
X138557000Y-108505750D01*
X138303000Y-108505750D01*
X138144250Y-108347000D01*
X137430000Y-108343928D01*
X137305518Y-108356188D01*
X137185820Y-108392498D01*
X137075506Y-108451463D01*
X136978815Y-108530815D01*
X136899463Y-108627506D01*
X136840498Y-108737820D01*
X136804188Y-108857518D01*
X136791928Y-108982000D01*
X130200000Y-108982000D01*
X130200000Y-102180017D01*
X142676091Y-102180017D01*
X142717079Y-102452133D01*
X142810365Y-102711023D01*
X142872345Y-102826980D01*
X143112436Y-102893960D01*
X143898396Y-102108000D01*
X143112436Y-101322040D01*
X142872345Y-101389020D01*
X142755245Y-101638048D01*
X142688978Y-101905135D01*
X142676091Y-102180017D01*
X130200000Y-102180017D01*
X130200000Y-88036000D01*
X150891765Y-88036000D01*
X150797820Y-88064498D01*
%TA.AperFunction,Conductor*%
D17*
G36*
X150797820Y-88064498D02*
G01*
X150687506Y-88123463D01*
X150590815Y-88202815D01*
X150511463Y-88299506D01*
X150452498Y-88409820D01*
X150416188Y-88529518D01*
X150403928Y-88654000D01*
X150403928Y-90108999D01*
X147734324Y-90108999D01*
X147697001Y-90105323D01*
X147659678Y-90108999D01*
X147659669Y-90108999D01*
X147548016Y-90119996D01*
X147404755Y-90163453D01*
X147272726Y-90234025D01*
X147157001Y-90328998D01*
X147133203Y-90357996D01*
X144369572Y-93121628D01*
X144215593Y-93091000D01*
X143940409Y-93091000D01*
X143670511Y-93144686D01*
X143416274Y-93249995D01*
X143187466Y-93402880D01*
X142992881Y-93597465D01*
X142839996Y-93826273D01*
X142734687Y-94080510D01*
X142681001Y-94350408D01*
X142681001Y-94625592D01*
X142734687Y-94895490D01*
X142839996Y-95149727D01*
X142992881Y-95378535D01*
X143187466Y-95573120D01*
X143416274Y-95726005D01*
X143493516Y-95758000D01*
X143416274Y-95789995D01*
X143187466Y-95942880D01*
X142992881Y-96137465D01*
X142839996Y-96366273D01*
X142734687Y-96620510D01*
X142681001Y-96890408D01*
X142681001Y-97165592D01*
X142734687Y-97435490D01*
X142839996Y-97689727D01*
X142992881Y-97918535D01*
X143187466Y-98113120D01*
X143366840Y-98232974D01*
X143372455Y-98251484D01*
X143414908Y-98330908D01*
X143187466Y-98482880D01*
X142992881Y-98677465D01*
X142839996Y-98906273D01*
X142734687Y-99160510D01*
X142681001Y-99430408D01*
X142681001Y-99705592D01*
X142734687Y-99975490D01*
X142839996Y-100229727D01*
X142992881Y-100458535D01*
X143187466Y-100653120D01*
X143416274Y-100806005D01*
X143487944Y-100835692D01*
X143474978Y-100840364D01*
X143359021Y-100902344D01*
X143292041Y-101142435D01*
X144078001Y-101928395D01*
X144092144Y-101914253D01*
X144271749Y-102093858D01*
X144257606Y-102108000D01*
X144271749Y-102122143D01*
X144092144Y-102301748D01*
X144078001Y-102287605D01*
X143292041Y-103073565D01*
X143359021Y-103313656D01*
X143608049Y-103430756D01*
X143875136Y-103497023D01*
X144150018Y-103509910D01*
X144422134Y-103468922D01*
X144681024Y-103375636D01*
X144796981Y-103313656D01*
X144863960Y-103073567D01*
X144980370Y-103189977D01*
X144998392Y-103171955D01*
X147081440Y-105255003D01*
X147105238Y-105284001D01*
X147220963Y-105378974D01*
X147352992Y-105449546D01*
X147496253Y-105493003D01*
X147607906Y-105504000D01*
X147607916Y-105504000D01*
X147645239Y-105507676D01*
X147682562Y-105504000D01*
X150613822Y-105504000D01*
X150738525Y-105690632D01*
X150945368Y-105897475D01*
X151127534Y-106019195D01*
X151010645Y-106088822D01*
X150794412Y-106283731D01*
X150620359Y-106517080D01*
X150495175Y-106779901D01*
X150450524Y-106927110D01*
X150571845Y-107157000D01*
X151765000Y-107157000D01*
X151765000Y-107137000D01*
X152019000Y-107137000D01*
X152019000Y-107157000D01*
X152039000Y-107157000D01*
X152039000Y-107411000D01*
X152019000Y-107411000D01*
X152019000Y-107431000D01*
X151765000Y-107431000D01*
X151765000Y-107411000D01*
X150571845Y-107411000D01*
X150450524Y-107640890D01*
X150468150Y-107699001D01*
X148905803Y-107699001D01*
X147883804Y-106677003D01*
X147860001Y-106647999D01*
X147744276Y-106553026D01*
X147612247Y-106482454D01*
X147468986Y-106438997D01*
X147357333Y-106428000D01*
X147357322Y-106428000D01*
X147320000Y-106424324D01*
X147282678Y-106428000D01*
X146261325Y-106428000D01*
X146224000Y-106424324D01*
X146186675Y-106428000D01*
X146186667Y-106428000D01*
X146075014Y-106438997D01*
X145931753Y-106482454D01*
X145799724Y-106553026D01*
X145683999Y-106647999D01*
X145660201Y-106676997D01*
X143921376Y-108415823D01*
X143906912Y-108409832D01*
X143591033Y-108347000D01*
X143268967Y-108347000D01*
X142953088Y-108409832D01*
X142655537Y-108533082D01*
X142387748Y-108712013D01*
X142160013Y-108939748D01*
X141981082Y-109207537D01*
X141857832Y-109505088D01*
X141795000Y-109820967D01*
X141795000Y-110143033D01*
X141857832Y-110458912D01*
X141981082Y-110756463D01*
X142160013Y-111024252D01*
X142387748Y-111251987D01*
X142655537Y-111430918D01*
X142953088Y-111554168D01*
X143268967Y-111617000D01*
X143591033Y-111617000D01*
X143906912Y-111554168D01*
X144204463Y-111430918D01*
X144472252Y-111251987D01*
X144699987Y-111024252D01*
X144878918Y-110756463D01*
X145002168Y-110458912D01*
X145065000Y-110143033D01*
X145065000Y-109820967D01*
X145002168Y-109505088D01*
X144996177Y-109490624D01*
X146538802Y-107948000D01*
X147005199Y-107948000D01*
X148027202Y-108970004D01*
X148051000Y-108999002D01*
X148135074Y-109068000D01*
X147287581Y-109068000D01*
X147190617Y-109077550D01*
X147066207Y-109115290D01*
X146951550Y-109176575D01*
X146851052Y-109259052D01*
X146778875Y-109347000D01*
X146558000Y-109347000D01*
X146533224Y-109349440D01*
X146509399Y-109356667D01*
X146487443Y-109368403D01*
X146468197Y-109384197D01*
X146452403Y-109403443D01*
X146440667Y-109425399D01*
X146433440Y-109449224D01*
X146431000Y-109474000D01*
X146431000Y-111271457D01*
X146379570Y-111485678D01*
X146318547Y-111633000D01*
X135621453Y-111633000D01*
X135560430Y-111485678D01*
X135509000Y-111271457D01*
X135509000Y-110982000D01*
X136791928Y-110982000D01*
X136804188Y-111106482D01*
X136840498Y-111226180D01*
X136899463Y-111336494D01*
X136978815Y-111433185D01*
X137075506Y-111512537D01*
X137185820Y-111571502D01*
X137305518Y-111607812D01*
X137430000Y-111620072D01*
X138144250Y-111617000D01*
X138303000Y-111458250D01*
X138303000Y-110109000D01*
X138557000Y-110109000D01*
X138557000Y-111458250D01*
X138715750Y-111617000D01*
X139430000Y-111620072D01*
X139554482Y-111607812D01*
X139674180Y-111571502D01*
X139784494Y-111512537D01*
X139881185Y-111433185D01*
X139960537Y-111336494D01*
X140019502Y-111226180D01*
X140055812Y-111106482D01*
X140068072Y-110982000D01*
X140065000Y-110267750D01*
X139906250Y-110109000D01*
X138557000Y-110109000D01*
X138303000Y-110109000D01*
X136953750Y-110109000D01*
X136795000Y-110267750D01*
X136791928Y-110982000D01*
X135509000Y-110982000D01*
X135509000Y-109474000D01*
X135506560Y-109449224D01*
X135499333Y-109425399D01*
X135487597Y-109403443D01*
X135471803Y-109384197D01*
X135452557Y-109368403D01*
X135430601Y-109356667D01*
X135406776Y-109349440D01*
X135382000Y-109347000D01*
X135161125Y-109347000D01*
X135088948Y-109259052D01*
X134988450Y-109176575D01*
X134873793Y-109115290D01*
X134749383Y-109077550D01*
X134652419Y-109068000D01*
X130200000Y-109068000D01*
X130200000Y-108982000D01*
X136791928Y-108982000D01*
X136795000Y-109696250D01*
X136953750Y-109855000D01*
X138303000Y-109855000D01*
X138303000Y-108505750D01*
X138557000Y-108505750D01*
X138557000Y-109855000D01*
X139906250Y-109855000D01*
X140065000Y-109696250D01*
X140068072Y-108982000D01*
X140055812Y-108857518D01*
X140019502Y-108737820D01*
X139960537Y-108627506D01*
X139881185Y-108530815D01*
X139784494Y-108451463D01*
X139674180Y-108392498D01*
X139554482Y-108356188D01*
X139430000Y-108343928D01*
X138715750Y-108347000D01*
X138557000Y-108505750D01*
X138303000Y-108505750D01*
X138144250Y-108347000D01*
X137430000Y-108343928D01*
X137305518Y-108356188D01*
X137185820Y-108392498D01*
X137075506Y-108451463D01*
X136978815Y-108530815D01*
X136899463Y-108627506D01*
X136840498Y-108737820D01*
X136804188Y-108857518D01*
X136791928Y-108982000D01*
X130200000Y-108982000D01*
X130200000Y-102180017D01*
X142676091Y-102180017D01*
X142717079Y-102452133D01*
X142810365Y-102711023D01*
X142872345Y-102826980D01*
X143112436Y-102893960D01*
X143898396Y-102108000D01*
X143112436Y-101322040D01*
X142872345Y-101389020D01*
X142755245Y-101638048D01*
X142688978Y-101905135D01*
X142676091Y-102180017D01*
X130200000Y-102180017D01*
X130200000Y-88036000D01*
X150891765Y-88036000D01*
X150797820Y-88064498D01*
G37*
%TD.AperFunction*%
%TD*%
M02*
